<svg xmlns="http://www.w3.org/2000/svg" width="65.808" height="54.073" viewBox="0 0 65.808 54.073">
  <g id="Group_434" data-name="Group 434" transform="translate(-462.37 -328.18)">
    <path id="Path_393" data-name="Path 393" d="M490.5,381.259h0a6.681,6.681,0,0,1,6.681-6.681h11.388a6.681,6.681,0,0,0,6.681-6.681v-6.721a6.681,6.681,0,0,1,6.681-6.681h5.433s.467,22.657-.106,23.918-1.758,2.846-5.925,2.846Z" transform="translate(-0.179)" fill="#ffd4cf"/>
    <g id="Group_432" data-name="Group 432" transform="translate(463.364 339.259)">
      <path id="Path_394" data-name="Path 394" d="M523.445,339.259H467.1a3.727,3.727,0,0,0-3.74,3.706v34.588a3.727,3.727,0,0,0,3.74,3.706h56.341a3.727,3.727,0,0,0,3.74-3.706V342.965A3.727,3.727,0,0,0,523.445,339.259Z" transform="translate(-463.364 -339.259)" fill="none" stroke="#0a1835" stroke-linecap="round" stroke-linejoin="round" stroke-width="1.988"/>
      <rect id="Rectangle_571" data-name="Rectangle 571" width="63.82" height="2.471" transform="translate(0 23.248)" fill="#0a1835"/>
      <rect id="Rectangle_572" data-name="Rectangle 572" width="63.82" height="2.471" transform="translate(0 30.66)" fill="#0a1835"/>
    </g>
    <g id="Group_433" data-name="Group 433" transform="translate(469.114 329.259)">
      <path id="Path_395" data-name="Path 395" d="M472.926,348.431a3.491,3.491,0,0,0,1.225.5l-2.016,4.349a1.263,1.263,0,0,0,.132,1.285,1.248,1.248,0,0,0,1.189.489l3.632-.557L479,357.655a1.247,1.247,0,0,0,2.2-.122l5.416-11.682,5.416,11.682a1.249,1.249,0,0,0,1.064.724l.069,0a1.251,1.251,0,0,0,1.068-.6l1.909-3.156,3.632.557a1.247,1.247,0,0,0,1.189-.489,1.263,1.263,0,0,0,.132-1.285l-2.016-4.349a3.505,3.505,0,0,0,1.226-.5c2.315-1.528,3.811-5.177,3.811-9.3l-.193-2.514c-.476-3.052-1.814-5.592-3.619-6.783a3.674,3.674,0,0,0-4.068.078l-6.249,4.19h-6.743l-6.249-4.19a3.672,3.672,0,0,0-4.068-.077c-1.8,1.19-3.142,3.73-3.619,6.782l-.192,2.514C469.114,343.253,470.609,346.9,472.926,348.431Z" transform="translate(-469.114 -329.259)" fill="#ffd4cf" stroke="#0a1835" stroke-linecap="round" stroke-linejoin="round" stroke-width="2.005"/>
      <g id="Path_396" data-name="Path 396" transform="translate(-469.114 -329.259)" fill="#fc6e57" stroke-linecap="round" stroke-linejoin="round">
        <path d="M 499.0393676757813 348.3324890136719 C 498.6067504882813 348.3324890136719 498.17431640625 348.217529296875 497.7887878417969 348 L 497.7119445800781 347.9566345214844 L 497.6490478515625 347.906494140625 C 497.3825378417969 347.7068176269531 494.7304992675781 345.9335021972656 491.0380554199219 343.4860534667969 L 491.00146484375 343.4617919921875 L 490.5105895996094 343.1341552734375 L 490.5105895996094 342.5440063476563 L 490.5105895996094 340.5169982910156 L 490.5105895996094 339.4136047363281 L 491.614013671875 339.4136047363281 L 495.7409973144531 339.4136047363281 C 495.8912963867188 339.4136047363281 496.0135803222656 339.2881774902344 496.0135803222656 339.1340026855469 C 496.0135803222656 338.9792785644531 495.8912963867188 338.8534240722656 495.7409973144531 338.8534240722656 L 491.614013671875 338.8534240722656 L 490.5105895996094 338.8534240722656 L 490.5105895996094 337.75 L 490.5105895996094 335.7229919433594 L 490.5105895996094 335.1343688964844 L 490.9994812011719 334.8065490722656 L 497.6105041503906 330.3735656738281 C 498.0404968261719 330.0852966308594 498.5335693359375 329.9329833984375 499.0365295410156 329.9329833984375 C 499.4865417480469 329.9329833984375 499.9143676757813 330.0577087402344 500.2737121582031 330.293701171875 C 502.0917358398438 331.4937133789063 503.3914489746094 334.3598327636719 503.6678161621094 337.7750244140625 C 503.9191284179688 340.8074035644531 503.223876953125 346.0274963378906 500.2776184082031 347.9710388183594 C 499.9176635742188 348.2077941894531 499.4898986816406 348.3324890136719 499.0393676757813 348.3324890136719 Z" stroke="none"/>
        <path d="M 499.0393676757813 347.2290954589844 C 499.2673034667969 347.2290954589844 499.4871826171875 347.1702575683594 499.6700134277344 347.0499877929688 C 502.0060119628906 345.5090026855469 502.8269958496094 340.989013671875 502.5679931640625 337.864013671875 C 502.3219909667969 334.8240051269531 501.1830139160156 332.2160034179688 499.6679992675781 331.2160034179688 C 499.4850158691406 331.0958557128906 499.2652282714844 331.036376953125 499.0365295410156 331.036376953125 C 498.7627258300781 331.036376953125 498.4761962890625 331.1216430664063 498.2250061035156 331.2900085449219 L 491.614013671875 335.7229919433594 L 491.614013671875 337.75 L 495.7409973144531 337.75 C 496.5010070800781 337.75 497.1170043945313 338.3689880371094 497.1170043945313 339.1340026855469 C 497.1170043945313 339.8980102539063 496.5010070800781 340.5169982910156 495.7409973144531 340.5169982910156 L 491.614013671875 340.5169982910156 L 491.614013671875 342.5440063476563 C 491.6319885253906 342.5559997558594 498 346.7749938964844 498.3309936523438 347.0390014648438 C 498.5538635253906 347.1647644042969 498.801025390625 347.2290954589844 499.0393676757813 347.2290954589844 M 499.0393676757813 349.4359130859375 C 498.4171447753906 349.4359130859375 497.7972106933594 349.2716979980469 497.2465515136719 348.9609985351563 C 497.1556701660156 348.9097290039063 497.0685729980469 348.8520812988281 496.9858703613281 348.7885131835938 C 496.64453125 348.54052734375 494.0193786621094 346.7859497070313 490.4284362792969 344.40576171875 L 490.3889465332031 344.3795776367188 C 489.7755432128906 343.9701843261719 489.4071655273438 343.2814636230469 489.4071655273438 342.5440063476563 L 489.4071655273438 340.5169982910156 C 489.4071655273438 339.9931640625 489.5896911621094 339.511962890625 489.8945922851563 339.1335144042969 C 489.5896911621094 338.7550354003906 489.4071655273438 338.2738647460938 489.4071655273438 337.75 L 489.4071655273438 335.7229919433594 C 489.4071655273438 334.9872436523438 489.7738647460938 334.2998657226563 490.3849487304688 333.8901062011719 L 496.9959716796875 329.4571228027344 C 497.6084899902344 329.0465087890625 498.3140258789063 328.8295593261719 499.0365295410156 328.8295593261719 C 499.702392578125 328.8295593261719 500.3396301269531 329.0169372558594 500.87939453125 329.3713989257813 C 500.8808288574219 329.3723449707031 500.8822631835938 329.3732604980469 500.8836975097656 329.3742065429688 C 501.984130859375 330.1005859375 502.9291381835938 331.317138671875 503.6165161132813 332.8923950195313 C 504.2294921875 334.297119140625 504.6275329589844 335.9547119140625 504.7676391601563 337.6860046386719 C 504.9261474609375 339.5985107421875 504.7273864746094 341.7661743164063 504.2219543457031 343.62890625 C 503.5598754882813 346.06884765625 502.4060668945313 347.8888549804688 500.8851928710938 348.8921203613281 C 500.3434448242188 349.2484436035156 499.7060241699219 349.4359130859375 499.0393676757813 349.4359130859375 Z" stroke="none" fill="#0a1835"/>
      </g>
      <g id="Path_397" data-name="Path 397" transform="translate(-469.114 -329.259)" fill="#ffd4cf" stroke-linecap="round" stroke-linejoin="round">
        <path d="M 490.1165771484375 342.6505737304688 L 489.114013671875 342.6505737304688 L 484.114013671875 342.6505737304688 L 483.1114501953125 342.6505737304688 L 483.1114501953125 341.6480102539063 L 483.1114501953125 336.6189880371094 L 483.1114501953125 335.6164245605469 L 484.114013671875 335.6164245605469 L 489.114013671875 335.6164245605469 L 490.1165771484375 335.6164245605469 L 490.1165771484375 336.6189880371094 L 490.1165771484375 341.6480102539063 L 490.1165771484375 342.6505737304688 Z" stroke="none"/>
        <path d="M 484.114013671875 336.6189880371094 L 484.114013671875 341.6480102539063 L 489.114013671875 341.6480102539063 L 489.114013671875 336.6189880371094 L 484.114013671875 336.6189880371094 M 484.114013671875 334.6138610839844 L 489.114013671875 334.6138610839844 C 490.2214050292969 334.6138610839844 491.119140625 335.5115966796875 491.119140625 336.6189880371094 L 491.119140625 341.6480102539063 C 491.119140625 342.7554016113281 490.2214050292969 343.6531372070313 489.114013671875 343.6531372070313 L 484.114013671875 343.6531372070313 C 483.0066223144531 343.6531372070313 482.10888671875 342.7554016113281 482.10888671875 341.6480102539063 L 482.10888671875 336.6189880371094 C 482.10888671875 335.5115966796875 483.0066223144531 334.6138610839844 484.114013671875 334.6138610839844 Z" stroke="none" fill="#0a1835"/>
      </g>
      <g id="Path_398" data-name="Path 398" transform="translate(-469.114 -329.259)" fill="#fc6e57" stroke-linecap="round" stroke-linejoin="round">
        <path d="M 474.1847839355469 348.3314819335938 C 473.7361450195313 348.3314819335938 473.3104248046875 348.2074890136719 472.9536743164063 347.9728393554688 C 471.650390625 347.1128234863281 470.6517028808594 345.5092468261719 470.064208984375 343.3345031738281 C 469.5960083007813 341.6015014648438 469.412353515625 339.5739440917969 469.5603332519531 337.7716979980469 C 469.8379211425781 334.3576965332031 471.136962890625 331.4931945800781 472.9504699707031 330.2969360351563 C 473.3120422363281 330.0588989257813 473.7414245605469 329.933349609375 474.1930236816406 329.933349609375 C 474.6961975097656 329.933349609375 475.1890258789063 330.0857543945313 475.6182861328125 330.3741149902344 L 482.228515625 334.8065795898438 L 482.7173767089844 335.1343994140625 L 482.7173767089844 335.7229919433594 L 482.7173767089844 337.75 L 482.7173767089844 338.8533630371094 L 481.614013671875 338.8533630371094 L 477.4869995117188 338.8533630371094 C 477.336669921875 338.8533630371094 477.21435546875 338.9792785644531 477.21435546875 339.1340026855469 C 477.21435546875 339.2882080078125 477.336669921875 339.4136352539063 477.4869995117188 339.4136352539063 L 481.614013671875 339.4136352539063 L 482.7173767089844 339.4136352539063 L 482.7173767089844 340.5169982910156 L 482.7173767089844 342.5440063476563 L 482.7173767089844 343.1466369628906 L 482.2183532714844 343.4671936035156 C 482.0050659179688 343.6096496582031 476.0347290039063 347.6021423339844 475.5494995117188 347.9281311035156 L 475.5141296386719 347.9559631347656 L 475.4398193359375 347.9977416992188 C 475.051513671875 348.2160949707031 474.6175537109375 348.3314819335938 474.1847839355469 348.3314819335938 Z" stroke="none"/>
        <path d="M 474.1930236816406 331.0367126464844 C 473.9634094238281 331.0367126464844 473.7422790527344 331.0966491699219 473.5580139160156 331.2179870605469 C 472.0450134277344 332.2160034179688 470.9070129394531 334.8240051269531 470.6600036621094 337.8619995117188 C 470.4030151367188 340.9920043945313 471.2019958496094 345.4949951171875 473.5599975585938 347.0509948730469 C 473.7406005859375 347.1697998046875 473.9581604003906 347.2281188964844 474.1847839355469 347.2281188964844 C 474.4237060546875 347.2281188964844 474.6726684570313 347.1632690429688 474.8989868164063 347.0360107421875 C 474.9129943847656 347.0249938964844 481.6000061035156 342.5530090332031 481.614013671875 342.5440063476563 L 481.614013671875 340.5169982910156 L 477.4869995117188 340.5169982910156 C 476.7269897460938 340.5169982910156 476.1109924316406 339.8970031738281 476.1109924316406 339.1340026855469 C 476.1109924316406 338.3689880371094 476.7269897460938 337.75 477.4869995117188 337.75 L 481.614013671875 337.75 L 481.614013671875 335.7229919433594 L 475.0029907226563 331.2900085449219 C 474.7528076171875 331.1219482421875 474.4668579101563 331.0367126464844 474.1930236816406 331.0367126464844 M 474.1930236816406 328.8299865722656 C 474.9161376953125 328.8299865722656 475.6217041015625 329.0472106933594 476.2335205078125 329.4582214355469 L 482.843017578125 333.8901672363281 C 483.4540710449219 334.2999267578125 483.8207397460938 334.9872741699219 483.8207397460938 335.7229919433594 L 483.8207397460938 337.75 C 483.8207397460938 338.2738342285156 483.6382141113281 338.7550659179688 483.3332824707031 339.1335144042969 C 483.6382141113281 339.5119323730469 483.8207397460938 339.9931640625 483.8207397460938 340.5169982910156 L 483.8207397460938 342.5440063476563 C 483.8207397460938 343.2837524414063 483.4501342773438 343.9735107421875 482.8352355957031 344.3820190429688 C 482.78076171875 344.4183044433594 476.4088439941406 348.6793518066406 476.1440124511719 348.8580017089844 C 476.091064453125 348.8941650390625 476.0365600585938 348.9280395507813 475.9806518554688 348.95947265625 C 475.4275817871094 349.2704772949219 474.8065795898438 349.4348754882813 474.1847839355469 349.4348754882813 C 473.52001953125 349.4348754882813 472.8846740722656 349.2480773925781 472.3473510742188 348.8946838378906 C 470.8146667480469 347.8832702636719 469.6577758789063 346.0607604980469 468.9990234375 343.6222839355469 C 468.4989013671875 341.7710571289063 468.3026733398438 339.6056823730469 468.4606628417969 337.6814270019531 C 468.6012268066406 335.9529418945313 468.9992370605469 334.2964172363281 469.6116027832031 332.8926696777344 C 470.2987976074219 331.3173522949219 471.2432861328125 330.1012878417969 472.3429260253906 329.3759155273438 C 472.8859558105469 329.0184020996094 473.5251770019531 328.8299865722656 474.1930236816406 328.8299865722656 Z" stroke="none" fill="#0a1835"/>
      </g>
    </g>
  </g>
</svg>
