<svg xmlns="http://www.w3.org/2000/svg" width="66.16" height="66.342" viewBox="0 0 66.16 66.342">
  <g id="Group_594" data-name="Group 594" transform="translate(-550.155 -245.066)">
    <path id="Path_429" data-name="Path 429" d="M575.905,310.066h-12.77c-4.1-7.877-11.974-21.613-11.974-43.738,0-8,3.589-6.442,4.994-5.292.774.633,1.167,6.134,1.167,6.134l1.049,10.141s3.138-1.632,3.308-1.648a15.761,15.761,0,0,1,4.616,2.443c1.134,1.125,11.317,10.7,11.944,13.115S575.833,305.578,575.905,310.066Z" fill="#ffd4cf"/>
    <path id="Path_430" data-name="Path 430" d="M590.554,310.066h12.769c4.1-7.877,11.975-21.613,11.975-43.738,0-8-3.589-6.442-4.995-5.292-.774.633-1.166,6.134-1.166,6.134l-1.05,10.141s-3.138-1.632-3.307-1.648a15.749,15.749,0,0,0-4.616,2.443c-1.134,1.125-11.317,10.7-11.944,13.115S590.625,305.578,590.554,310.066Z" fill="#ffd4cf"/>
    <path id="Path_431" data-name="Path 431" d="M590.643,250.927c-6.684,0-6.432-4.861-14.251-4.861s-9.756,8.562-7.945,15.334c1.639,6.133,2.144,9.373,3.657,12.035s5.36,2.835,5.865-1.389,2.9-7.695,4.981-7.695,4.477,3.066,5.612,8.853,5.739,1.5,6.874-2.894,3.216-10.125,3.216-15.217-4.919-9.027-8.828-9.027-5.235,1.474-6.433,2.053" fill="none" stroke="#0a1835" stroke-linecap="round" stroke-linejoin="round" stroke-width="2"/>
    <g id="Group_590" data-name="Group 590">
      <g id="Group_588" data-name="Group 588">
        <path id="Path_432" data-name="Path 432" d="M575.905,310.066c0-7.512.948-8.94,2.281-13.418s1.046-6.009-2.784-9.584-10.164-10.148-11.33-11.058-8.47-.6-3.069,5.618,8.016,8.393,8.542,11.968" fill="none" stroke="#0a1835" stroke-linecap="round" stroke-linejoin="round" stroke-width="2"/>
        <path id="Path_433" data-name="Path 433" d="M563.135,310.066c-2.563-5.129-11.066-21.186-11.731-31.42-.249-4.638-.249-13.5-.249-15.6,0-3.614,5.99-4.974,5.99.505v7.188a17.2,17.2,0,0,0,4.28,11.363" fill="none" stroke="#0a1835" stroke-linecap="round" stroke-linejoin="round" stroke-width="2"/>
      </g>
      <g id="Group_589" data-name="Group 589">
        <path id="Path_434" data-name="Path 434" d="M590.565,310.066c0-7.512-.948-8.94-2.281-13.418s-1.046-6.009,2.784-9.584,10.164-10.148,11.33-11.058,8.47-.6,3.069,5.618-8.016,8.393-8.542,11.968" fill="none" stroke="#0a1835" stroke-linecap="round" stroke-linejoin="round" stroke-width="2"/>
        <path id="Path_435" data-name="Path 435" d="M603.335,310.066c2.563-5.129,11.066-21.186,11.731-31.42.249-4.638.249-13.5.249-15.6,0-3.614-5.99-4.974-5.99.505v7.188a17.2,17.2,0,0,1-4.28,11.363" fill="none" stroke="#0a1835" stroke-linecap="round" stroke-linejoin="round" stroke-width="2"/>
      </g>
    </g>
    <g id="Group_591" data-name="Group 591">
      <line id="Line_147" data-name="Line 147" x1="6.485" y2="0.049" transform="translate(555.155 251.218)" fill="none" stroke="#fc6e57" stroke-linecap="round" stroke-linejoin="round" stroke-width="2"/>
      <line id="Line_148" data-name="Line 148" x1="0.052" y1="6.048" transform="translate(558.371 248.243)" fill="none" stroke="#fc6e57" stroke-linecap="round" stroke-linejoin="round" stroke-width="2"/>
    </g>
    <g id="Group_592" data-name="Group 592">
      <line id="Line_149" data-name="Line 149" x1="6.485" y2="0.049" transform="translate(604.83 251.218)" fill="none" stroke="#fc6e57" stroke-linecap="round" stroke-linejoin="round" stroke-width="2"/>
      <line id="Line_150" data-name="Line 150" x1="0.052" y1="6.048" transform="translate(608.046 248.243)" fill="none" stroke="#fc6e57" stroke-linecap="round" stroke-linejoin="round" stroke-width="2"/>
    </g>
    <g id="Group_593" data-name="Group 593">
      <line id="Line_151" data-name="Line 151" x1="6.485" y2="0.049" transform="translate(579.992 281.621)" fill="none" stroke="#fc6e57" stroke-linecap="round" stroke-linejoin="round" stroke-width="2"/>
      <line id="Line_152" data-name="Line 152" x1="0.052" y1="6.048" transform="translate(583.209 278.646)" fill="none" stroke="#fc6e57" stroke-linecap="round" stroke-linejoin="round" stroke-width="2"/>
    </g>
  </g>
</svg>
