<svg xmlns="http://www.w3.org/2000/svg" width="74.003" height="54.335" viewBox="0 0 74.003 54.335">
  <g id="Group_596" data-name="Group 596" transform="translate(-377.026 -259.713)">
    <path id="Path_436" data-name="Path 436" d="M413.138,307.3c0-11.656-2.05-11.92-9.462-15.21s-4.551-2.708-2.463-3.386,9.019-8.529,10.519-10.779,1.884-5.249.179-6.748-6.831-5.072-9.648-3.41-8.189,7.732-10.179,9.47-11.576,9.525-12.87,10.5,1.674,1.58,3.232,3.274,7.183,11.76,11.26,14.58,11.557,6.03,15.027,6.572S413.138,311.3,413.138,307.3Z" transform="translate(0.108 0.89)" fill="#ffd4cf"/>
    <path id="Path_437" data-name="Path 437" d="M414.019,284.212c5.872,0,11.077,5.577,17.309,5.577s14.106-1.094,18.7-1.094c-7.218-5.358-17.606-14-19.247-16.622s-4.39-4.7-7.28-4.7c-5.508,0-6.809,4.674-9.483,4.674h.018c-2.675,0-3.976-4.674-9.484-4.674-2.889,0-5.64,2.078-7.28,4.7s-12.029,11.263-19.245,16.622c4.592,0,12.466,1.094,18.7,1.094s11.437-5.577,17.31-5.577" transform="translate(0 0.895)" fill="none" stroke="#0a1835" stroke-linecap="round" stroke-linejoin="round" stroke-width="2.003"/>
    <path id="Path_438" data-name="Path 438" d="M414.019,309.782c8.169,0,17.337-2.625,22.176-8.612s8.52-14.568,13.833-14.844c-2.57,0-11.278.749-16.949,1.094s-14.517,5.14-19.06,5.14h.018c-4.543,0-13.388-4.8-19.06-5.14s-14.38-1.094-16.949-1.094c5.312.277,8.994,8.857,13.833,14.844s14.006,8.612,22.176,8.612" transform="translate(0 3.264)" fill="none" stroke="#0a1835" stroke-linecap="round" stroke-linejoin="round" stroke-width="2.003"/>
    <g id="Path_439" data-name="Path 439" transform="translate(5.574 1.093)" fill="#fc6e57" stroke-linecap="round" stroke-linejoin="round">
      <path d="M 433.3457336425781 282.978271484375 C 433.0857849121094 282.9783020019531 432.8344421386719 282.9153747558594 432.5986938476563 282.791259765625 L 429.9517822265625 281.3997497558594 C 429.86572265625 281.3546142578125 429.7684326171875 281.3306274414063 429.6708984375 281.3306274414063 C 429.5733642578125 281.3306274414063 429.4760437011719 281.3546142578125 429.3895263671875 281.3999938964844 L 426.7428894042969 282.7913818359375 C 426.5073547363281 282.9153747558594 426.2560119628906 282.978271484375 425.9960632324219 282.978271484375 C 425.5228271484375 282.978271484375 425.0742797851563 282.76806640625 424.7654113769531 282.4015197753906 C 424.4624938964844 282.0420532226563 424.3349304199219 281.5675354003906 424.4154357910156 281.0996398925781 L 424.9205322265625 278.1535949707031 C 424.9543762207031 277.9570922851563 424.8895874023438 277.7572631835938 424.7472229003906 277.6186218261719 L 422.606201171875 275.5315856933594 C 422.1656188964844 275.1023864746094 422.0099487304688 274.4721069335938 422.2000427246094 273.8868713378906 C 422.39013671875 273.3014831542969 422.8864440917969 272.8828735351563 423.4953002929688 272.79443359375 L 426.4541015625 272.3646240234375 C 426.6510314941406 272.3363342285156 426.82080078125 272.2127990722656 426.9089050292969 272.0341491699219 L 428.2319641113281 269.3531799316406 C 428.5040588378906 268.8013610839844 429.0554504394531 268.45849609375 429.6708984375 268.45849609375 C 430.2863159179688 268.45849609375 430.8377075195313 268.8013610839844 431.1098937988281 269.3533020019531 L 432.4328308105469 272.0340270996094 C 432.52099609375 272.2128295898438 432.6907348632813 272.3363037109375 432.8869934082031 272.3645324707031 L 435.846435546875 272.7944030761719 C 436.455322265625 272.8828735351563 436.9516296386719 273.3014831542969 437.1417541503906 273.8868408203125 C 437.3318176269531 274.4721069335938 437.1761474609375 275.1023864746094 436.7354736328125 275.5316772460938 L 434.5947265625 277.6184692382813 C 434.4522094726563 277.7572937011719 434.3873901367188 277.9570922851563 434.4211730957031 278.1531372070313 L 434.9264221191406 281.0999450683594 C 435.0068359375 281.5674743652344 434.8793029785156 282.0419616699219 434.5763854980469 282.4014587402344 C 434.2675170898438 282.7680053710938 433.8189697265625 282.978271484375 433.3457336425781 282.978271484375 Z" stroke="none"/>
      <path d="M 429.6708984375 268.95849609375 C 429.27685546875 268.95849609375 428.8828430175781 269.163818359375 428.6803283691406 269.574462890625 L 427.3573303222656 272.2553100585938 C 427.1964416503906 272.58154296875 426.8859558105469 272.8076782226563 426.5259704589844 272.8594360351563 L 423.5671997070313 273.2892150878906 C 422.6615905761719 273.4208068847656 422.29931640625 274.5345764160156 422.9552001953125 275.1735534667969 L 425.0960998535156 277.2604370117188 C 425.35595703125 277.5135498046875 425.4751892089844 277.8791809082031 425.413330078125 278.2380676269531 L 424.908203125 281.1844177246094 C 424.7853698730469 281.8982849121094 425.3526000976563 282.478271484375 425.9960632324219 282.478271484375 C 426.1658630371094 282.478271484375 426.3410949707031 282.4378356933594 426.5102233886719 282.3488159179688 L 429.1573181152344 280.9571838378906 C 429.3182067871094 280.872802734375 429.4945678710938 280.8306274414063 429.6708984375 280.8306274414063 C 429.8472595214844 280.8306274414063 430.0235900878906 280.872802734375 430.1844482421875 280.9571838378906 L 432.8315734863281 282.3488159179688 C 433.000732421875 282.4378662109375 433.1758728027344 282.478271484375 433.3457336425781 282.478271484375 C 433.9891357421875 282.478271484375 434.5564270019531 281.8982238769531 434.43359375 281.1844177246094 L 433.9284362792969 278.2380676269531 C 433.8665771484375 277.8791809082031 433.9858093261719 277.5135498046875 434.2457275390625 277.2604370117188 L 436.3865661621094 275.1735534667969 C 437.0424499511719 274.5345764160156 436.6802062988281 273.4208068847656 435.7745666503906 273.2892150878906 L 432.8158569335938 272.8594360351563 C 432.4558410644531 272.8076782226563 432.1453247070313 272.58154296875 431.9844665527344 272.2553100585938 L 430.6614685058594 269.574462890625 C 430.4589538574219 269.163818359375 430.0649108886719 268.95849609375 429.6708984375 268.95849609375 M 429.6708984375 267.95849609375 C 430.4780883789063 267.95849609375 431.2012939453125 268.408203125 431.5583190917969 269.1321411132813 L 432.8812255859375 271.8127746582031 C 432.896484375 271.84375 432.9252014160156 271.8648681640625 432.9581604003906 271.86962890625 L 435.9183044433594 272.2995910644531 C 436.7169799804688 272.4156494140625 437.3679504394531 272.9646606445313 437.6173095703125 273.732421875 C 437.8666076660156 274.5000610351563 437.6623840332031 275.3267211914063 437.0843811035156 275.8898315429688 L 434.9437561035156 277.9765014648438 C 434.9191284179688 278.00048828125 434.9081115722656 278.0346374511719 434.9139099121094 278.0682067871094 L 435.4192199707031 281.0154418945313 C 435.5246887207031 281.6283264160156 435.3568725585938 282.2511596679688 434.9587097167969 282.7236633300781 C 434.5546264648438 283.2032470703125 433.9667053222656 283.478271484375 433.3457336425781 283.478271484375 C 433.0037841796875 283.478271484375 432.6741027832031 283.39599609375 432.3657836914063 283.2337341308594 L 429.7191162109375 281.8423156738281 C 429.7046203613281 281.834716796875 429.6881103515625 281.8306274414063 429.6708984375 281.8306274414063 C 429.6536865234375 281.8306274414063 429.6371154785156 281.834716796875 429.6217346191406 281.8428039550781 L 426.9755554199219 283.2339477539063 C 426.6676635742188 283.39599609375 426.3379821777344 283.478271484375 425.9960632324219 283.478271484375 C 425.3750610351563 283.478271484375 424.7871398925781 283.2032470703125 424.383056640625 282.7237243652344 C 423.9849243164063 282.251220703125 423.8171081542969 281.6283569335938 423.9226684570313 281.0148620605469 L 424.4277038574219 278.069091796875 C 424.4336547851563 278.0346069335938 424.4226379394531 278.0004272460938 424.3983459472656 277.9767761230469 L 422.2571716308594 275.8896179199219 C 421.6793823242188 275.3267211914063 421.4751892089844 274.5000610351563 421.7244873046875 273.732421875 C 421.9738159179688 272.9646911621094 422.6247863769531 272.4156494140625 423.4234008789063 272.2995910644531 L 426.3822326660156 271.8698425292969 C 426.4165954589844 271.8648681640625 426.4453125 271.8437194824219 426.4604797363281 271.81298828125 L 427.7835693359375 269.1319274902344 C 428.1404418945313 268.4082336425781 428.8636779785156 267.95849609375 429.6708984375 267.95849609375 Z" stroke="none" fill="#0a1835"/>
    </g>
    <g id="Group_595" data-name="Group 595" transform="translate(438.902 260.213)">
      <line id="Line_153" data-name="Line 153" x2="4.559" transform="translate(3.226 8.702)" fill="none" stroke="#fc6e57" stroke-linecap="round" stroke-linejoin="round" stroke-width="1"/>
      <line id="Line_154" data-name="Line 154" y1="4.486" stroke-width="1" stroke="#fc6e57" stroke-linecap="round" stroke-linejoin="round" fill="none"/>
      <line id="Line_155" data-name="Line 155" y1="3.172" x2="3.224" transform="translate(2.052 3.019)" fill="none" stroke="#fc6e57" stroke-linecap="round" stroke-linejoin="round" stroke-width="1"/>
    </g>
  </g>
</svg>
