<svg xmlns="http://www.w3.org/2000/svg" width="56.451" height="58.629" viewBox="0 0 56.451 58.629">
  <g id="Group_374" data-name="Group 374" transform="translate(-522.549 -4809.392)">
    <path id="Path_29" data-name="Path 29" d="M217.473,223.454c-4.972-4.1-14.594-35.284-7.638-47.161,5.866-10.014,18.344-8.09,22.368-5.169,9.986,7.254-6.547,8.142-.77,16.237,7.994,11.2-1.81,18.711-3.937,21.8C224.768,213.134,225.924,227.267,217.473,223.454Z" transform="translate(316.53 4641.629)" fill="#fc6e57"/>
    <path id="Path_30" data-name="Path 30" d="M247.277,177.949c-11.786,0-11.341-9.19-25.128-9.19s-17.2,16.188-14.009,28.992c2.89,11.6,3.78,17.723,6.448,22.755s9.451,5.361,10.341-2.626,5.114-14.55,8.783-14.55,7.894,5.8,9.9,16.738,10.118,2.845,12.119-5.47,5.67-19.146,5.67-28.773-8.672-17.067-15.566-17.067-9.23,2.787-11.342,3.882" transform="translate(316.603 4641.633)" fill="none" stroke="#0a1835" stroke-linecap="round" stroke-linejoin="round" stroke-width="2"/>
    <path id="Path_31" data-name="Path 31" d="M214.74,188.846c.111-2.79.056-14.167,10.9-12.471" transform="translate(315.061 4640.144)" fill="none" stroke="#fff" stroke-linecap="round" stroke-linejoin="round" stroke-width="2"/>
  </g>
</svg>
