<svg xmlns="http://www.w3.org/2000/svg" width="66.003" height="65.886" viewBox="0 0 66.003 65.886">
  <g id="Group_429" data-name="Group 429" transform="translate(-261.742 -321.974)">
    <path id="Path_373" data-name="Path 373" d="M313.943,327.836V381.3h.463a3.15,3.15,0,0,0,3.15-3.15v-47.2a3.151,3.151,0,0,0-3.613-3.116Z" fill="#ffd4cf"/>
    <path id="Path_374" data-name="Path 374" d="M265.585,323v20.748c0,3.861,2.55,7.142,5.9,8.877a3.069,3.069,0,0,1,1.735,2.7V378.91a3.011,3.011,0,0,1-3.012,3.012h0V356.255s-4.908-2-6.093-5.407-1.373-18.715-1.373-21.159-.25-4.912.854-5.688A6.822,6.822,0,0,1,265.585,323Z" fill="#ffd4cf"/>
    <g id="Shape" fill="none" stroke-linecap="round" stroke-linejoin="round">
      <path d="M310,364.1c-.854.149-7.744,1.372-10.923,4.125a11.5,11.5,0,0,0-.917-2.562c-2.453-4.912-13.376-8.506-13.867-8.612a1.067,1.067,0,0,0-1.28.691c-.149.478-3.658,11.7-1.216,16.618,2.3,4.615,7.467,7.113,12.1,5.2a39.86,39.86,0,0,1,1.984,6.379,1.067,1.067,0,0,0,2.134-.064,15.309,15.309,0,0,1,2.133-5.38c3.541,2.042,7.968.649,10.314-2.679s.992-11.9.811-12.855A1.067,1.067,0,0,0,310,364.1Zm-13.045,17.82c-.384-1.212-.811-2.339-1.238-3.392a9.047,9.047,0,0,0,1.419-1.361,6.809,6.809,0,0,0,1.28,2.031,20.616,20.616,0,0,0-1.461,2.679Z" stroke="none"/>
      <path d="M 284.6461791992188 359.2739562988281 C 284.3167724609375 360.4359436035156 283.7853393554688 362.4739379882813 283.4005737304688 364.7497863769531 C 282.7221374511719 368.7625427246094 282.7888793945313 371.8600463867188 283.5862731933594 373.4672241210938 C 285.0236206054688 376.3463134765625 287.7935485839844 378.2066650390625 290.6429443359375 378.2066650390625 C 291.4934692382813 378.2066650390625 292.3285217285156 378.0397644042969 293.1249389648438 377.7106628417969 C 293.3699340820313 377.6094055175781 293.6300048828125 377.5588073730469 293.8900146484375 377.5588073730469 C 293.9136962890625 377.5588073730469 293.9374389648438 377.5592346191406 293.9611206054688 377.56005859375 C 294.0909729003906 377.3252258300781 294.2694702148438 377.1139526367188 294.4921569824219 376.9425354003906 C 294.8985595703125 376.6297607421875 295.2702941894531 376.2732543945313 295.5970764160156 375.8829956054688 C 295.9809875488281 375.4244995117188 296.5452880859375 375.165771484375 297.1328125 375.165771484375 C 297.2360534667969 375.165771484375 297.3401184082031 375.1737670898438 297.4439392089844 375.1900939941406 C 298.1385192871094 375.2992248535156 298.7250061035156 375.7644958496094 298.9892883300781 376.416015625 C 299.2043762207031 376.9462280273438 299.5082702636719 377.4285278320313 299.8925476074219 377.8495483398438 C 300.0693054199219 378.0431823730469 300.2020874023438 378.2641906738281 300.2897033691406 378.4989624023438 C 300.5811462402344 378.5204772949219 300.8723449707031 378.6063232421875 301.1416931152344 378.7616577148438 C 301.9314880371094 379.2171020507813 302.7955627441406 379.4480285644531 303.7098999023438 379.4480285644531 C 305.64990234375 379.4480285644531 307.6070861816406 378.3811950683594 308.8179321289063 376.6634826660156 C 309.1497192382813 376.1930236816406 309.9101257324219 374.6557922363281 309.8059387207031 370.5522155761719 C 309.7631225585938 368.8663024902344 309.5831604003906 367.2546997070313 309.4415283203125 366.2444152832031 C 306.2469482421875 366.8858032226563 302.262939453125 368.1153259277344 300.3854064941406 369.7413024902344 C 300.0159606933594 370.0612182617188 299.5487976074219 370.230224609375 299.0738220214844 370.230224609375 C 298.8652954101563 370.230224609375 298.6552734375 370.1976623535156 298.4513854980469 370.1309814453125 C 297.7829895019531 369.9124145507813 297.2781677246094 369.359375 297.1212768554688 368.6738891601563 C 296.9540405273438 367.9430847167969 296.69921875 367.2312622070313 296.3648681640625 366.5599975585938 C 295.5787353515625 364.98583984375 293.242919921875 363.1694946289063 289.7876586914063 361.4454956054688 C 287.7091369628906 360.408447265625 285.7341613769531 359.6557312011719 284.6461791992188 359.2739562988281 M 284.0206909179688 357.0184326171875 C 284.1097106933594 357.0184326171875 284.2001647949219 357.0296325683594 284.2900085449219 357.0530090332031 C 284.781005859375 357.1589965820313 295.7040100097656 360.7529907226563 298.1570129394531 365.6650085449219 C 298.56298828125 366.4800109863281 298.8710021972656 367.3399963378906 299.0740051269531 368.2269897460938 C 302.2529907226563 365.4739990234375 309.1430053710938 364.2510070800781 309.9970092773438 364.1019897460938 C 310.0693054199219 364.0869140625 310.1424255371094 364.0794982910156 310.2152404785156 364.0794982910156 C 310.427490234375 364.0794982910156 310.6370544433594 364.1426391601563 310.8150024414063 364.2640075683594 C 311.0539855957031 364.4259948730469 311.2170104980469 364.6789855957031 311.2659912109375 364.9630126953125 C 311.4469909667969 365.9200134277344 312.802001953125 374.489990234375 310.4549865722656 377.8179931640625 C 308.8585815429688 380.0826416015625 306.2986450195313 381.4512329101563 303.7098999023438 381.4512329101563 C 302.4943542480469 381.4512329101563 301.2724304199219 381.1494750976563 300.1409912109375 380.4970092773438 C 299.093994140625 382.1400146484375 298.3699951171875 383.9649963378906 298.0079956054688 385.8770141601563 C 298.0249938964844 386.4649963378906 297.56201171875 386.9549865722656 296.9729919433594 386.9719848632813 C 296.9618530273438 386.9723205566406 296.9508056640625 386.9725036621094 296.9397277832031 386.9725036621094 C 296.3656311035156 386.9725036621094 295.8916625976563 386.5169067382813 295.8739929199219 385.9410095214844 C 295.3919982910156 383.7630004882813 294.72900390625 381.6289978027344 293.8900146484375 379.56201171875 C 292.8220520019531 380.0033569335938 291.7261047363281 380.2098693847656 290.6429443359375 380.2098693847656 C 287.0312805175781 380.2098693847656 283.5664367675781 377.9122619628906 281.7940063476563 374.3619995117188 C 279.3519897460938 369.4400024414063 282.8609924316406 358.2219848632813 283.010009765625 357.7439880371094 C 283.1584777832031 357.3018493652344 283.5727233886719 357.0184326171875 284.0206909179688 357.0184326171875 Z M 296.9519958496094 381.9219970703125 L 296.9519958496094 381.8789978027344 C 297.3720092773438 380.9519958496094 297.8599853515625 380.0559997558594 298.4129943847656 379.2000122070313 C 297.8689880371094 378.60400390625 297.4360046386719 377.9159851074219 297.1329956054688 377.1690063476563 C 296.7109985351563 377.6730041503906 296.2349853515625 378.1289978027344 295.7139892578125 378.5299987792969 C 296.1409912109375 379.5830078125 296.5679931640625 380.7099914550781 296.9519958496094 381.9219970703125 Z" stroke="none" fill="#0a1835"/>
    </g>
    <path id="Path_375" data-name="Path 375" d="M317.143,322.976a3.2,3.2,0,0,0-3.2,3.189v56.352a4.269,4.269,0,1,0,8.534-.17V361.253a3.191,3.191,0,0,1,2.538-3.126A2.129,2.129,0,0,0,326.743,356V332.545a9.584,9.584,0,0,0-9.6-9.569Z" fill="none" stroke="#0a1835" stroke-linecap="round" stroke-linejoin="round" stroke-width="2.003"/>
    <path id="Path_376" data-name="Path 376" d="M286.21,345.357V326.165a3.194,3.194,0,0,0-3.2-3.189c-1.767,0-2.2,1.428-2.2,3.189v14.886a1.066,1.066,0,0,1-.668.971,3.425,3.425,0,0,1-2.16-.237.989.989,0,0,1-.309-.734V326.165a3.2,3.2,0,0,0-6.4,0v14.886a1.063,1.063,0,0,1-.667.971,3.424,3.424,0,0,1-2.16-.237.99.99,0,0,1-.31-.734V326.165c0-1.761-.429-3.189-2.2-3.189a3.194,3.194,0,0,0-3.2,3.189v19.192a11.7,11.7,0,0,0,7.466,10.9v26.262a4.267,4.267,0,0,0,8.534,0V356.234A11.621,11.621,0,0,0,286.21,345.357Z" fill="none" stroke="#0a1835" stroke-linecap="round" stroke-linejoin="round" stroke-width="2.003"/>
    <g id="Path_377" data-name="Path 377" fill="none" stroke-linecap="round" stroke-linejoin="round">
      <path d="M295.021,349.057c-1.067,4.647,1.131,9.4,5.4,10.76-.106.776-.2,1.584-.256,2.424a1.064,1.064,0,1,0,2.123.149,14.694,14.694,0,0,1,.245-2.211c4.352.138,8.107-3.3,9.12-7.666,1.131-4.817-4.064-13.216-4.651-14.152a1.069,1.069,0,0,0-1.493-.33c-.949.628-9.365,6.21-10.485,11.026Z" stroke="none"/>
      <path d="M 305.8021545410156 340.2501220703125 C 304.7222900390625 340.9987182617188 303.1860961914063 342.1284790039063 301.6498718261719 343.4783020019531 C 298.9979553222656 345.8085021972656 297.3372497558594 347.9492492675781 296.9730529785156 349.5068054199219 C 296.5533142089844 351.3365478515625 296.7470703125 353.2122802734375 297.5187683105469 354.7883605957031 C 298.2675170898438 356.3175964355469 299.5133972167969 357.4256896972656 301.02685546875 357.9085388183594 C 301.3059692382813 357.9975891113281 301.5536193847656 358.1431274414063 301.7599182128906 358.3294067382813 C 301.9979553222656 358.2301635742188 302.2581787109375 358.1757507324219 302.5291442871094 358.1757507324219 C 302.5504760742188 358.1757507324219 302.5720520019531 358.1761169433594 302.5935363769531 358.1767883300781 C 302.6565246582031 358.1787719726563 302.7203979492188 358.1798095703125 302.7833251953125 358.1798095703125 C 304.3370056152344 358.1798095703125 305.8325805664063 357.5832214355469 307.1083374023438 356.45458984375 C 308.3832702636719 355.3266906738281 309.3031616210938 353.7662048339844 309.6985168457031 352.0606384277344 C 309.6989440917969 352.0587768554688 309.6993713378906 352.0569458007813 309.6997985839844 352.0551147460938 C 310.0624694824219 350.5106201171875 309.5059814453125 347.9280700683594 308.1329040527344 344.7831726074219 C 307.3153991699219 342.9108276367188 306.3917541503906 341.2503662109375 305.8021545410156 340.2501220703125 M 306.0921020507813 337.8569030761719 C 306.1690673828125 337.8569030761719 306.2464904785156 337.8651733398438 306.322998046875 337.8819885253906 C 306.60400390625 337.9440002441406 306.8479919433594 338.1170043945313 306.9989929199219 338.3609924316406 C 307.5859985351563 339.2969970703125 312.781005859375 347.6960144042969 311.6499938964844 352.5130004882813 C 310.6566467285156 356.7981872558594 307.02734375 360.1830139160156 302.7833251953125 360.1830139160156 C 302.6993408203125 360.1830139160156 302.6144714355469 360.1816711425781 302.5299987792969 360.1789855957031 C 302.4240112304688 360.8800048828125 302.2850036621094 361.625 302.2850036621094 362.3900146484375 C 302.2659912109375 362.6719970703125 302.135009765625 362.9349975585938 301.9200134277344 363.1210021972656 C 301.7252197265625 363.290283203125 301.4766540527344 363.3816833496094 301.22021484375 363.3816833496094 C 301.1948852539063 363.3816833496094 301.1694641113281 363.3807983398438 301.1440124511719 363.3789978027344 C 300.5580139160156 363.3340148925781 300.1189880371094 362.8250122070313 300.1619873046875 362.2409973144531 C 300.2160034179688 361.4010009765625 300.31201171875 360.5929870605469 300.4179992675781 359.8169860839844 C 296.1520080566406 358.4559936523438 293.9540100097656 353.7040100097656 295.02099609375 349.0570068359375 C 296.1409912109375 344.2409973144531 304.5570068359375 338.6589965820313 305.5060119628906 338.031005859375 C 305.681640625 337.9165954589844 305.8853454589844 337.8568725585938 306.0921020507813 337.8569030761719 Z" stroke="none" fill="#fc6e57"/>
    </g>
    <g id="Path_378" data-name="Path 378" fill="none" stroke-linecap="round" stroke-linejoin="round">
      <path d="M294.562,339.52c.064.393.139.8.192,1.212a1.077,1.077,0,0,0,2.134-.287,7.078,7.078,0,0,0-.182-1.159c3.456-1.01,5.067-4.636,4.267-8.07s-7.1-7.624-7.808-8.07a1.069,1.069,0,0,0-1.483.319c-.437.68-4.266,6.794-3.424,10.377a7.245,7.245,0,0,0,6.3,5.678Z" stroke="none"/>
      <path d="M 295.45068359375 337.7245178222656 C 295.6505737304688 337.5636901855469 295.88427734375 337.4391479492188 296.1440734863281 337.3632202148438 C 297.5437622070313 336.9541625976563 298.2769775390625 335.9939575195313 298.6455993652344 335.2604675292969 C 299.1799621582031 334.1972045898438 299.3136596679688 332.9222717285156 299.0220336914063 331.6705017089844 C 298.9141540527344 331.2074584960938 298.3763732910156 329.8811950683594 295.7192077636719 327.57275390625 C 294.62939453125 326.6259460449219 293.5626831054688 325.8440856933594 292.8714599609375 325.3623046875 C 292.4580688476563 326.0686645507813 291.8572387695313 327.1590881347656 291.3240661621094 328.3713684082031 C 290.3739318847656 330.5316467285156 289.9671630859375 332.3585815429688 290.2080688476563 333.3837585449219 C 290.2111206054688 333.3966674804688 290.2140197753906 333.4096374511719 290.2168273925781 333.4226379394531 C 290.6898193359375 335.6318969726563 292.5235290527344 337.281982421875 294.7797241210938 337.5286254882813 C 295.0183715820313 337.5547180175781 295.2445373535156 337.6224060058594 295.45068359375 337.7245178222656 M 295.8201904296875 341.6617126464844 C 295.2895812988281 341.6616821289063 294.827392578125 341.2705078125 294.7539978027344 340.7319946289063 C 294.7009887695313 340.3169860839844 294.6260070800781 339.9129943847656 294.56201171875 339.5199890136719 C 291.4519958496094 339.1799926757813 288.9110107421875 336.8919982910156 288.2579956054688 333.8420104980469 C 287.4159851074219 330.2590026855469 291.2449951171875 324.1449890136719 291.6820068359375 323.4649963378906 C 291.8349914550781 323.2250061035156 292.0780029296875 323.0570068359375 292.3569946289063 322.9970092773438 C 292.4313049316406 322.9809875488281 292.5065307617188 322.9730834960938 292.5814514160156 322.9730834960938 C 292.7868347167969 322.9730834960938 292.9898681640625 323.0324096679688 293.1650085449219 323.14599609375 C 293.8689880371094 323.5920104980469 300.1730041503906 327.7820129394531 300.9729919433594 331.2160034179688 C 301.7730102539063 334.6499938964844 300.1619873046875 338.2760009765625 296.7059936523438 339.2860107421875 C 296.7699890136719 339.6690063476563 296.8880004882813 340.0509948730469 296.8880004882813 340.4450073242188 C 296.9670104980469 341.0320129394531 296.5539855957031 341.5719909667969 295.9649963378906 341.6520080566406 C 295.9163208007813 341.6585388183594 295.8679809570313 341.6617126464844 295.8201904296875 341.6617126464844 Z" stroke="none" fill="#0a1835"/>
    </g>
    <line id="Line_93" data-name="Line 93" x1="1.003" y1="6.056" transform="translate(294.499 332.189)" fill="none" stroke="#0a1835" stroke-linecap="round" stroke-linejoin="round" stroke-width="2.003"/>
    <path id="Path_379" data-name="Path 379" d="M301.438,359.772c.474-1.8,1.811-9.444,2.7-12.166" fill="none" stroke="#fc6e57" stroke-linecap="round" stroke-linejoin="round" stroke-width="2.003"/>
    <path id="Path_380" data-name="Path 380" d="M294.332,378.036c-1.547-2.75-4.682-7-5.727-9.333" fill="none" stroke="#0a1835" stroke-linecap="round" stroke-linejoin="round" stroke-width="2.003"/>
    <path id="Path_381" data-name="Path 381" d="M299.6,379.546a64.787,64.787,0,0,1,5.852-7.926" fill="none" stroke="#0a1835" stroke-linecap="round" stroke-linejoin="round" stroke-width="2.003"/>
  </g>
</svg>
