<svg xmlns="http://www.w3.org/2000/svg" width="26" height="18.865" viewBox="0 0 26 18.865">
  <g id="youtube" transform="translate(0.001 -3)">
    <path id="Path_10" data-name="Path 10" d="M24.5,6.64a3.033,3.033,0,0,0-2.116-2.182C20.5,4,13,4,13,4s-7.505,0-9.381.5A3.033,3.033,0,0,0,1.5,6.683,31.635,31.635,0,0,0,1,12.454a31.635,31.635,0,0,0,.5,5.814,3.033,3.033,0,0,0,2.116,2.094c1.876.5,9.381.5,9.381.5s7.505,0,9.381-.5A3.033,3.033,0,0,0,24.5,18.181a31.634,31.634,0,0,0,.5-5.727,31.635,31.635,0,0,0-.5-5.814Z" fill="none" stroke="#fff" stroke-linecap="round" stroke-linejoin="round" stroke-width="2"/>
    <path id="Path_11" data-name="Path 11" d="M9.75,15.614l6.272-3.567L9.75,8.48Z" transform="translate(0.795 0.407)" fill="#fff"/>
  </g>
</svg>
